<?xml version="1.0" standalone="no"?><!DOCTYPE svg PUBLIC "-//W3C//DTD SVG 1.1//EN" "http://www.w3.org/Graphics/SVG/1.1/DTD/svg11.dtd"><svg height="1024" node-id="1" sillyvg="true" template-height="1024" template-width="1024" version="1.1" viewBox="0 0 1024 1024" width="1024" xmlns="http://www.w3.org/2000/svg" xmlns:xlink="http://www.w3.org/1999/xlink"><defs node-id="136"><linearGradient gradientUnits="objectBoundingBox" id="linearGradient-1" node-id="5" spreadMethod="pad" x1="0.5" x2="0.5" y1="0" y2="1"><stop offset="0" stop-color="#f9ab21"></stop><stop offset="1" stop-color="#fee127"></stop></linearGradient><linearGradient gradientUnits="objectBoundingBox" id="linearGradient-2" node-id="8" spreadMethod="pad" x1="0.5" x2="0.5" y1="0" y2="1"><stop offset="0" stop-color="#f9ab21"></stop><stop offset="1" stop-color="#fff29d" stop-opacity="0"></stop></linearGradient><linearGradient gradientUnits="objectBoundingBox" id="linearGradient-3" node-id="11" spreadMethod="pad" x1="0.5" x2="0.5" y1="0" y2="1"><stop offset="0" stop-color="#f9ab21"></stop><stop offset="1" stop-color="#fff29d" stop-opacity="0"></stop></linearGradient><linearGradient gradientUnits="objectBoundingBox" id="linearGradient-4" node-id="14" spreadMethod="pad" x1="0.5" x2="0.5" y1="0" y2="1"><stop offset="0" stop-color="#fff29d"></stop><stop offset="1" stop-color="#f9ab21"></stop></linearGradient><linearGradient gradientUnits="objectBoundingBox" id="linearGradient-5" node-id="17" spreadMethod="pad" x1="0.5" x2="0.5" y1="0" y2="1"><stop offset="0" stop-color="#fff29d"></stop><stop offset="1" stop-color="#f9ab21"></stop></linearGradient><linearGradient gradientUnits="objectBoundingBox" id="linearGradient-6" node-id="20" spreadMethod="pad" x1="0.5" x2="0.5" y1="0" y2="1"><stop offset="0" stop-color="#fff29d"></stop><stop offset="1" stop-color="#f9ab21"></stop></linearGradient><linearGradient gradientUnits="objectBoundingBox" id="linearGradient-7" node-id="23" spreadMethod="pad" x1="0.5" x2="0.5" y1="0" y2="1"><stop offset="0" stop-color="#fff29d"></stop><stop offset="1" stop-color="#f9ab21"></stop></linearGradient><linearGradient gradientUnits="objectBoundingBox" id="linearGradient-8" node-id="26" spreadMethod="pad" x1="0.5" x2="0.5" y1="0" y2="1"><stop offset="0" stop-color="#fff29d"></stop><stop offset="1" stop-color="#f9ab21"></stop></linearGradient><linearGradient gradientUnits="objectBoundingBox" id="linearGradient-9" node-id="29" spreadMethod="pad" x1="0.5" x2="0.5" y1="0" y2="1"><stop offset="0" stop-color="#fff29d"></stop><stop offset="1" stop-color="#f9ab21"></stop></linearGradient><linearGradient gradientUnits="objectBoundingBox" id="linearGradient-10" node-id="32" spreadMethod="pad" x1="0.5" x2="0.5" y1="0" y2="1"><stop offset="0" stop-color="#fff29d"></stop><stop offset="1" stop-color="#f9ab21"></stop></linearGradient><linearGradient gradientUnits="objectBoundingBox" id="linearGradient-11" node-id="35" spreadMethod="pad" x1="0.5" x2="0.5" y1="0" y2="1"><stop offset="0" stop-color="#fff29d"></stop><stop offset="1" stop-color="#f9ab21"></stop></linearGradient><linearGradient gradientUnits="objectBoundingBox" id="linearGradient-12" node-id="38" spreadMethod="pad" x1="0.04345679" x2="0.61833316" y1="0" y2="0.54458743"><stop offset="0" stop-color="#fff29d"></stop><stop offset="1" stop-color="#f9ab21"></stop></linearGradient><linearGradient gradientUnits="objectBoundingBox" id="linearGradient-13" node-id="41" spreadMethod="pad" x1="-0.08228959" x2="0.93992823" y1="0.3644788" y2="0.6221451"><stop offset="0" stop-color="#fff29d"></stop><stop offset="1" stop-color="#f9ab21"></stop></linearGradient><linearGradient gradientUnits="objectBoundingBox" id="linearGradient-14" node-id="44" spreadMethod="pad" x1="0.5" x2="0.5" y1="-0.27638733" y2="1"><stop offset="0" stop-color="#fff29d"></stop><stop offset="1" stop-color="#f9ab21"></stop></linearGradient><linearGradient gradientUnits="objectBoundingBox" id="linearGradient-15" node-id="47" spreadMethod="pad" x1="0.5" x2="0.5" y1="0" y2="1"><stop offset="0" stop-color="#fff29d"></stop><stop offset="1" stop-color="#f9ab21"></stop></linearGradient><linearGradient gradientUnits="objectBoundingBox" id="linearGradient-16" node-id="50" spreadMethod="pad" x1="0.5" x2="0.5" y1="0" y2="1"><stop offset="0" stop-color="#fff29d"></stop><stop offset="1" stop-color="#f9ab21"></stop></linearGradient><linearGradient gradientUnits="objectBoundingBox" id="linearGradient-17" node-id="53" spreadMethod="pad" x1="0.5" x2="0.5" y1="-0.27638733" y2="1"><stop offset="0" stop-color="#fff29d"></stop><stop offset="1" stop-color="#f9ab21"></stop></linearGradient><linearGradient gradientUnits="objectBoundingBox" id="linearGradient-18" node-id="56" spreadMethod="pad" x1="0.5" x2="0.5" y1="0" y2="1"><stop offset="0" stop-color="#fff29d"></stop><stop offset="1" stop-color="#f9ab21"></stop></linearGradient><linearGradient gradientUnits="objectBoundingBox" id="linearGradient-19" node-id="59" spreadMethod="pad" x1="0.5" x2="0.5" y1="0" y2="1"><stop offset="0" stop-color="#fff29d"></stop><stop offset="1" stop-color="#f9ab21"></stop></linearGradient><linearGradient gradientUnits="objectBoundingBox" id="linearGradient-20" node-id="62" spreadMethod="pad" x1="0.5" x2="0.5" y1="0" y2="1"><stop offset="0" stop-color="#fff29d"></stop><stop offset="1" stop-color="#f9ab21"></stop></linearGradient><linearGradient gradientUnits="objectBoundingBox" id="linearGradient-21" node-id="65" spreadMethod="pad" x1="0.5" x2="0.5" y1="0" y2="1"><stop offset="0" stop-color="#fff29d"></stop><stop offset="1" stop-color="#f9ab21"></stop></linearGradient><linearGradient gradientUnits="objectBoundingBox" id="linearGradient-22" node-id="68" spreadMethod="pad" x1="0.14347486" x2="0.99999994" y1="0.11709896" y2="0.73632675"><stop offset="0" stop-color="#bfd4fa"></stop><stop offset="1" stop-color="#5792f0"></stop></linearGradient><linearGradient gradientUnits="objectBoundingBox" id="linearGradient-23" node-id="71" spreadMethod="pad" x1="0.24725881" x2="0.4821384" y1="-0.31405056" y2="0.44119787"><stop offset="0" stop-color="#bfd4fa"></stop><stop offset="1" stop-color="#5792f0"></stop></linearGradient><linearGradient gradientUnits="objectBoundingBox" id="linearGradient-24" node-id="74" spreadMethod="pad" x1="0.5" x2="0.5" y1="-0.19003879" y2="1"><stop offset="0" stop-color="#ffcda5"></stop><stop offset="1" stop-color="#ffe8d1"></stop></linearGradient><linearGradient gradientUnits="objectBoundingBox" id="linearGradient-25" node-id="77" spreadMethod="pad" x1="0.5" x2="0.5" y1="0" y2="1"><stop offset="0" stop-color="#fff2df"></stop><stop offset="1" stop-color="#fee0bc"></stop></linearGradient><linearGradient gradientUnits="objectBoundingBox" id="linearGradient-26" node-id="80" spreadMethod="pad" x1="0.21875" x2="0.636424" y1="0.23445843" y2="1"><stop offset="0" stop-color="#fff2df"></stop><stop offset="1" stop-color="#fee0bc"></stop></linearGradient><linearGradient gradientUnits="objectBoundingBox" id="linearGradient-27" node-id="83" spreadMethod="pad" x1="0.49999997" x2="0.49999997" y1="0" y2="0.99999994"><stop offset="0" stop-color="#fff2df"></stop><stop offset="1" stop-color="#fee0bc"></stop></linearGradient><linearGradient gradientUnits="objectBoundingBox" id="linearGradient-28" node-id="86" spreadMethod="pad" x1="0.5" x2="0.5" y1="0" y2="1"><stop offset="0" stop-color="#fee127"></stop><stop offset="1" stop-color="#f9ab21"></stop></linearGradient></defs><path d="M 0.00 0.00 L 1024.00 0.00 L 1024.00 1024.00 L 0.00 1024.00 Z" fill="none" id="矩形" node-id="90" stroke="none" target-height="1024" target-width="1024" target-x="0" target-y="0"></path><g node-id="305"><g node-id="306"><path d="M 78.17 579.65 L 70.85 570.80 L 64.52 562.28 L 59.09 554.07 L 54.50 546.15 L 50.70 538.49 L 47.62 531.07 L 45.23 523.87 L 43.48 516.86 L 42.34 510.02 L 41.78 503.32 L 41.80 496.73 L 42.37 490.24 L 43.50 483.80 L 45.21 477.41 L 47.49 471.04 L 50.39 464.66 L 53.93 458.26 L 58.16 451.83 L 63.11 445.35 L 68.85 438.81 L 75.43 432.19 L 82.92 425.50 L 91.39 418.73 L 100.91 411.88 L 111.57 404.94 L 123.44 397.92 L 136.62 390.83 L 151.20 383.66 L 180.97 376.35 L 192.84 373.23 L 201.71 370.62 L 207.25 368.74 L 211.68 366.96 L 215.16 365.29 L 218.46 363.30 L 221.05 361.26 L 223.05 359.16 L 224.70 356.78 L 226.05 354.09 L 227.09 351.05 L 228.17 346.10 L 229.02 339.76 L 230.56 324.12 L 231.67 314.68 L 233.44 302.92 L 235.32 293.03 L 237.49 284.20 L 239.91 276.36 L 242.55 269.40 L 245.15 263.81 L 248.00 258.83 L 251.07 254.41 L 254.36 250.51 L 257.88 247.08 L 261.77 244.04 L 266.02 241.45 L 270.66 239.30 L 275.73 237.59 L 281.29 236.34 L 286.69 235.65 L 292.66 235.38 L 299.26 235.57 L 306.56 236.28 L 314.62 237.57 L 324.02 239.62 L 334.59 242.50 L 346.45 246.31 L 359.72 251.16 L 370.72 255.14 L 381.51 258.55 L 392.11 261.43 L 402.52 263.78 L 412.77 265.63 L 422.85 266.99 L 433.22 267.90 L 443.37 268.31 L 453.29 268.24 L 463.01 267.69 L 472.55 266.67 L 481.91 265.19 L 491.29 263.20 L 500.43 260.77 L 509.34 257.87 L 518.05 254.53 L 526.55 250.72 L 534.87 246.46 L 542.92 241.77 L 550.73 236.63 L 558.31 231.05 L 565.66 225.01 L 572.79 218.49 L 579.71 211.49 L 582.89 208.38 L 586.74 205.16 L 591.35 201.81 L 596.80 198.32 L 604.13 194.20 L 612.51 190.08 L 622.05 185.97 L 631.72 182.29 L 642.17 178.82 L 653.44 175.55 L 664.82 172.72 L 676.65 170.27 L 688.98 168.20 L 701.37 166.62 L 713.91 165.57 L 726.63 165.04 L 736.18 165.03 L 745.66 165.40 L 755.06 166.12 L 764.39 167.22 L 773.69 168.73 L 782.76 170.67 L 791.61 173.05 L 800.26 175.85 L 808.75 179.16 L 816.89 182.97 L 824.70 187.27 L 832.21 192.08 L 837.94 196.30 L 843.40 200.89 L 848.60 205.87 L 853.54 211.24 L 858.24 217.03 L 862.47 223.00 L 866.40 229.44 L 870.03 236.37 L 873.34 243.82 L 876.33 251.82 L 878.74 259.72 L 880.78 268.21 L 882.44 277.32 L 883.67 287.10 L 884.47 297.61 L 884.74 307.65 L 884.53 318.42 L 883.80 329.95 L 882.52 342.29 L 880.65 355.50 L 878.41 367.97 L 875.56 381.27 L 872.05 395.45 L 867.83 410.56 L 862.85 426.64 L 858.20 438.83 L 854.38 450.35 L 851.34 461.24 L 849.02 471.52 L 847.18 482.17 L 845.96 492.23 L 845.33 501.73 L 845.24 510.70 L 845.66 519.85 L 846.52 528.49 L 847.79 536.64 L 849.45 544.33 L 851.57 552.05 L 853.97 559.31 L 856.64 566.15 L 859.57 572.57 L 863.99 580.97 L 868.64 588.62 L 873.52 595.59 L 878.79 602.28 L 884.03 608.24 L 889.21 613.54 L 894.68 618.59 L 899.79 622.91 L 904.58 626.58 L 911.79 631.49 L 917.55 634.87 L 922.88 637.46 L 926.03 638.57 L 928.68 639.63 L 933.62 642.41 L 938.99 646.01 L 945.74 651.15 L 950.23 654.92 L 954.97 659.26 L 959.97 664.19 L 964.73 669.33 L 969.38 674.91 L 973.93 680.95 L 978.11 687.25 L 981.88 693.87 L 985.23 700.85 L 987.37 706.24 L 989.12 711.77 L 990.48 717.45 L 991.46 723.30 L 991.96 729.17 L 991.93 735.17 L 991.36 741.35 L 990.23 747.71 L 988.57 753.84 L 986.20 760.17 L 983.09 766.71 L 979.15 773.50 L 975.76 778.50 L 971.79 783.65 L 967.17 788.95 L 961.87 794.43 L 955.83 800.08 L 948.28 806.42 L 939.51 812.99 L 929.42 819.81 L 917.86 826.87 L 906.47 833.19 L 893.59 839.70 L 879.09 846.39 L 862.85 853.27 L 846.71 859.48 L 829.94 865.37 L 812.51 870.91 L 794.41 876.12 L 776.33 880.82 L 757.79 885.21 L 738.78 889.28 L 719.28 893.02 L 693.28 897.41 L 666.80 901.27 L 639.83 904.58 L 612.79 907.35 L 585.65 909.63 L 558.39 911.42 L 531.10 912.76 L 504.08 913.67 L 477.32 914.15 L 450.55 914.24 L 424.43 913.98 L 398.97 913.37 L 373.49 912.42 L 349.08 911.19 L 325.69 909.70 L 302.30 907.89 L 280.37 905.90 L 259.83 903.75 L 239.30 901.28 L 220.64 898.73 L 203.73 896.12 L 186.85 893.17 L 172.26 890.27 L 159.74 887.43 L 147.29 884.14 L 137.60 881.10 L 130.23 878.28 L 125.00 875.80 L 120.28 873.12 L 116.00 870.23 L 112.16 867.14 L 108.71 863.86 L 104.73 859.30 L 101.28 854.49 L 98.35 849.41 L 95.93 844.03 L 93.98 838.45 L 92.46 832.67 L 91.36 826.65 L 90.69 820.38 L 90.43 814.12 L 90.52 807.72 L 90.98 801.18 L 91.81 794.49 L 93.39 785.67 L 95.48 776.82 L 98.10 767.92 L 101.15 759.17 L 104.58 750.62 L 108.37 742.27 L 112.53 734.09 L 116.89 726.37 L 121.44 719.10 L 126.33 712.03 L 131.22 705.68 L 136.11 699.98 L 141.35 694.59 L 146.37 690.13 L 151.20 686.51 L 154.97 683.61 L 157.94 680.65 L 160.21 677.62 L 161.86 674.49 L 162.93 671.24 L 163.45 667.81 L 163.40 664.15 L 162.74 660.20 L 161.40 655.90 L 159.27 651.18 L 156.23 646.00 L 152.13 640.27 L 146.81 633.94 L 140.09 626.94 L 131.77 619.22 L 121.65 610.69 L 109.51 601.31 L 95.09 590.98 L 78.17 579.65 Z" fill="url(#linearGradient-1)" fill-opacity="0.1" fill-rule="evenodd" group-id="1,2" id="路径-64" node-id="92" stroke="none" target-height="749.20996" target-width="950.18005" target-x="41.78" target-y="165.03"></path></g><path d="M 259.50 328.55 L 244.84 328.55 L 244.55 323.04 L 243.75 317.77 L 242.46 312.73 L 240.67 307.87 L 238.41 303.19 L 235.76 298.83 L 232.72 294.77 L 229.28 290.99 L 225.50 287.54 L 221.44 284.51 L 217.08 281.86 L 212.40 279.60 L 207.54 277.81 L 202.50 276.52 L 197.23 275.72 L 191.72 275.42 L 186.20 275.72 L 180.93 276.52 L 175.89 277.81 L 171.04 279.60 L 166.36 281.86 L 162.00 284.51 L 157.93 287.54 L 154.15 290.99 L 150.71 294.77 L 147.67 298.83 L 145.03 303.19 L 142.76 307.87 L 140.98 312.73 L 139.68 317.77 L 138.88 323.04 L 138.59 328.55 L 127.88 328.55 L 124.53 328.80 L 121.37 329.50 L 118.37 330.64 L 115.54 332.18 L 112.96 334.07 L 110.60 336.33 L 108.54 338.87 L 106.79 341.68 L 105.36 344.78 L 104.32 348.03 L 103.67 351.46 L 103.44 355.12 L 103.67 358.77 L 104.32 362.21 L 105.36 365.46 L 106.80 368.55 L 108.54 371.36 L 110.60 373.90 L 112.96 376.16 L 115.54 378.05 L 118.37 379.59 L 121.37 380.73 L 124.53 381.43 L 127.88 381.68 L 259.50 381.68 L 262.85 381.43 L 266.01 380.73 L 269.02 379.59 L 271.84 378.05 L 274.42 376.16 L 276.79 373.90 L 278.85 371.36 L 280.59 368.55 L 282.02 365.46 L 283.07 362.21 L 283.71 358.77 L 283.94 355.12 L 283.71 351.46 L 283.07 348.03 L 282.02 344.78 L 280.59 341.68 L 278.85 338.87 L 276.79 336.33 L 274.42 334.07 L 271.84 332.18 L 269.02 330.64 L 266.01 329.50 L 262.85 328.80 L 259.50 328.55 Z" fill="url(#linearGradient-2)" fill-rule="evenodd" group-id="1" id="云" node-id="93" stroke="none" target-height="106.25998" target-width="180.5" target-x="103.44" target-y="275.42"></path><path d="M 799.12 214.06 L 788.61 214.06 L 788.40 210.10 L 787.83 206.33 L 786.90 202.71 L 785.62 199.23 L 783.40 194.81 L 780.68 190.78 L 777.46 187.12 L 773.79 183.90 L 769.77 181.18 L 765.35 178.96 L 761.87 177.68 L 758.25 176.75 L 754.48 176.18 L 750.52 175.96 L 746.57 176.18 L 742.79 176.75 L 739.17 177.68 L 735.69 178.96 L 731.27 181.18 L 727.25 183.90 L 723.58 187.12 L 720.36 190.78 L 717.64 194.81 L 715.42 199.23 L 714.14 202.71 L 713.21 206.33 L 712.64 210.10 L 712.43 214.06 L 704.75 214.06 L 701.56 214.38 L 698.63 215.24 L 695.91 216.66 L 693.46 218.54 L 691.37 220.80 L 689.62 223.49 L 688.33 226.43 L 687.52 229.62 L 687.23 233.10 L 687.52 236.59 L 688.33 239.78 L 689.62 242.72 L 691.37 245.40 L 693.46 247.67 L 695.91 249.55 L 698.63 250.96 L 701.56 251.83 L 704.75 252.15 L 799.12 252.15 L 802.31 251.83 L 805.24 250.96 L 807.97 249.55 L 810.41 247.67 L 812.50 245.40 L 814.25 242.72 L 815.55 239.78 L 816.35 236.59 L 816.65 233.10 L 816.35 229.62 L 815.55 226.43 L 814.25 223.49 L 812.50 220.80 L 810.41 218.54 L 807.97 216.66 L 805.24 215.24 L 802.31 214.38 L 799.12 214.06 Z" fill="url(#linearGradient-3)" fill-rule="evenodd" group-id="1" id="云" node-id="94" stroke="none" target-height="76.18999" target-width="129.42004" target-x="687.23" target-y="175.96"></path><path d="M 865.33 841.16 L 864.23 837.19 L 862.73 833.60 L 860.84 830.35 L 858.55 827.39 L 855.84 824.72 L 852.67 822.31 L 849.00 820.16 L 844.77 818.28 L 838.55 815.98 L 834.10 813.84 L 831.49 812.11 L 830.05 810.63 L 829.42 809.34 L 829.38 808.39 L 829.81 807.44 L 830.86 806.41 L 832.81 805.29 L 837.76 804.71 L 840.69 804.62 L 844.03 805.02 L 846.23 805.62 L 848.56 806.68 L 851.08 808.27 L 853.34 810.18 L 855.76 812.88 L 858.36 816.53 L 860.58 820.39 L 862.90 825.43 L 865.33 831.85 L 865.84 835.01 L 865.84 838.10 L 865.33 841.16 Z" fill="url(#linearGradient-4)" fill-rule="evenodd" group-id="1,3" id="路径-43" node-id="96" stroke="none" target-height="36.539978" target-width="36.460022" target-x="829.38" target-y="804.62"></path><path d="M 865.35 841.16 L 861.85 829.22 L 858.36 818.80 L 854.89 809.77 L 851.45 801.99 L 848.05 795.34 L 844.71 789.71 L 841.41 784.98 L 839.90 782.86 L 838.70 780.69 L 837.79 778.47 L 836.92 775.04 L 836.67 771.82 L 836.84 769.71 L 837.26 767.85 L 837.92 766.20 L 838.86 764.73 L 840.02 763.59 L 841.41 762.76 L 843.37 762.60 L 845.73 762.68 L 847.30 762.97 L 849.01 763.62 L 850.92 764.69 L 852.62 766.04 L 854.50 768.09 L 856.59 770.99 L 858.36 774.09 L 860.28 778.28 L 862.36 783.78 L 864.10 789.38 L 865.93 796.45 L 867.83 805.24 L 868.57 809.95 L 869.39 818.23 L 869.56 823.04 L 869.43 828.08 L 868.88 833.05 L 867.83 837.55 L 867.18 839.04 L 866.35 840.23 L 865.35 841.16 Z" fill="url(#linearGradient-5)" fill-rule="evenodd" group-id="1,3" id="路径-44" node-id="97" stroke="none" target-height="78.56" target-width="32.890015" target-x="836.67" target-y="762.6"></path><path d="M 868.38 835.12 L 869.45 830.51 L 870.18 825.39 L 870.52 819.72 L 870.44 813.43 L 869.88 806.46 L 868.81 798.74 L 867.15 790.21 L 863.17 779.18 L 861.27 773.61 L 859.78 768.40 L 859.03 764.91 L 858.66 761.82 L 858.63 759.08 L 859.04 756.43 L 859.96 754.26 L 861.38 752.47 L 862.71 751.46 L 864.46 750.65 L 866.74 750.07 L 869.66 749.79 L 872.01 750.31 L 874.45 751.42 L 875.94 752.46 L 877.42 753.92 L 878.92 755.88 L 880.13 758.01 L 881.29 760.79 L 882.37 764.34 L 883.13 767.95 L 883.72 772.45 L 884.10 777.98 L 884.18 783.50 L 883.97 790.12 L 883.40 797.98 L 882.14 805.61 L 880.73 812.01 L 879.08 818.09 L 877.31 823.72 L 873.44 835.12 L 872.03 835.60 L 870.37 835.63 L 868.38 835.12 Z" fill="url(#linearGradient-6)" fill-rule="evenodd" group-id="1,3" id="路径-45" node-id="98" stroke="none" target-height="85.84003" target-width="25.549988" target-x="858.63" target-y="749.79"></path><path d="M 871.55 841.16 L 871.40 830.28 L 871.80 820.47 L 872.68 811.63 L 874.00 803.69 L 875.71 796.56 L 877.78 790.17 L 880.18 784.45 L 882.90 779.35 L 885.93 774.80 L 889.25 770.77 L 890.53 769.41 L 892.36 768.10 L 894.44 767.09 L 896.72 766.42 L 899.04 766.24 L 901.21 766.65 L 902.52 767.28 L 903.68 768.27 L 904.71 769.69 L 905.42 771.31 L 905.91 773.52 L 906.11 776.47 L 904.56 782.64 L 903.27 786.54 L 901.23 791.53 L 898.65 796.76 L 894.93 803.13 L 890.49 809.69 L 884.47 817.44 L 882.44 820.40 L 880.60 823.56 L 878.97 826.81 L 877.62 829.87 L 875.71 835.24 L 875.16 837.41 L 875.01 838.58 L 874.79 839.68 L 874.21 840.45 L 873.19 840.96 L 871.55 841.16 Z" fill="url(#linearGradient-7)" fill-rule="evenodd" group-id="1,3" id="路径-46" node-id="99" stroke="none" target-height="74.91998" target-width="34.70996" target-x="871.4" target-y="766.24"></path><path d="M 803.77 844.73 L 814.95 842.43 L 821.21 840.72 L 824.26 839.48 L 825.43 838.60 L 826.32 837.76 L 828.36 836.32 L 830.79 834.92 L 834.00 833.40 L 837.46 832.14 L 841.26 831.21 L 843.87 830.86 L 846.47 830.82 L 849.08 831.08 L 851.60 831.71 L 854.02 832.80 L 856.37 834.38 L 857.47 833.31 L 859.05 832.32 L 860.86 831.60 L 862.92 831.19 L 865.04 831.18 L 867.17 831.65 L 868.50 832.25 L 869.77 833.15 L 870.98 834.38 L 871.71 832.31 L 872.78 830.37 L 874.22 828.56 L 876.81 826.19 L 879.78 824.21 L 882.96 822.66 L 885.99 821.64 L 888.95 821.11 L 891.19 821.16 L 893.24 821.06 L 896.13 821.14 L 899.18 821.52 L 902.59 822.38 L 904.80 823.24 L 906.99 824.44 L 909.16 825.99 L 911.07 827.83 L 912.84 830.17 L 914.45 833.07 L 915.64 836.18 L 916.53 840.01 L 917.07 844.73 L 899.33 844.81 L 803.77 844.73 Z" fill="url(#linearGradient-8)" fill-rule="evenodd" group-id="1,3" id="路径-47" node-id="100" stroke="none" target-height="23.75" target-width="113.29999" target-x="803.77" target-y="821.06"></path><path d="M 658.94 310.32 L 658.94 310.22 L 657.35 306.63 L 655.37 303.42 L 652.97 300.55 L 650.22 298.01 L 647.20 295.82 L 643.90 293.96 L 640.41 292.47 L 636.81 291.34 L 633.09 290.57 L 629.30 290.17 L 625.57 290.14 L 621.88 290.49 L 624.70 288.93 L 627.75 287.60 L 631.06 286.49 L 634.45 285.67 L 637.87 285.18 L 641.32 285.00 L 644.77 285.18 L 648.03 285.75 L 651.13 286.71 L 654.04 288.10 L 656.63 289.95 L 658.94 292.29 L 658.94 292.38 L 661.24 290.06 L 663.83 288.22 L 666.75 286.84 L 669.86 285.88 L 673.13 285.31 L 676.58 285.12 L 680.04 285.30 L 683.46 285.78 L 686.85 286.59 L 690.16 287.69 L 693.20 289.03 L 695.99 290.58 L 692.31 290.26 L 688.59 290.30 L 684.80 290.71 L 681.07 291.49 L 677.47 292.63 L 673.98 294.12 L 670.68 295.98 L 667.66 298.16 L 664.91 300.70 L 662.51 303.55 L 660.52 306.74 L 658.94 310.31 L 658.94 310.32 Z" fill="url(#linearGradient-9)" fill-rule="evenodd" group-id="1,4" id="路径" node-id="102" stroke="none" target-height="25.320007" target-width="74.109985" target-x="621.88" target-y="285"></path><path d="M 741.52 297.90 L 741.52 297.84 L 739.98 294.57 L 737.97 291.77 L 735.48 289.38 L 732.62 287.40 L 729.53 285.86 L 726.17 284.76 L 722.70 284.10 L 719.26 283.90 L 715.84 284.16 L 718.82 282.60 L 722.19 281.39 L 725.73 280.63 L 729.31 280.36 L 731.70 280.48 L 733.96 280.88 L 736.11 281.54 L 738.13 282.51 L 739.92 283.79 L 741.52 285.41 L 741.52 285.47 L 743.12 283.87 L 744.92 282.59 L 746.94 281.63 L 750.21 280.74 L 753.75 280.45 L 757.34 280.71 L 760.87 281.46 L 764.24 282.67 L 767.20 284.23 L 763.78 283.98 L 760.34 284.19 L 756.87 284.86 L 753.51 285.97 L 750.42 287.51 L 747.56 289.48 L 745.07 291.87 L 743.06 294.66 L 741.52 297.90 L 741.52 297.90 Z" fill="url(#linearGradient-10)" fill-rule="evenodd" group-id="1,4" id="路径" node-id="103" stroke="none" target-height="17.540009" target-width="51.359985" target-x="715.84" target-y="280.36"></path><path d="M 707.08 263.77 L 707.08 263.71 L 705.54 260.44 L 703.53 257.64 L 701.04 255.25 L 698.18 253.27 L 695.09 251.74 L 691.73 250.63 L 688.26 249.97 L 684.82 249.77 L 681.40 250.04 L 684.38 248.47 L 687.75 247.26 L 691.29 246.50 L 694.87 246.23 L 697.26 246.36 L 699.52 246.75 L 701.67 247.41 L 703.69 248.38 L 705.48 249.66 L 707.08 251.28 L 707.08 251.34 L 708.68 249.74 L 710.48 248.47 L 712.50 247.50 L 715.77 246.61 L 719.31 246.32 L 722.90 246.58 L 726.43 247.33 L 729.80 248.54 L 732.76 250.10 L 729.34 249.86 L 725.90 250.06 L 722.43 250.73 L 719.07 251.84 L 715.98 253.38 L 713.12 255.35 L 710.63 257.74 L 708.62 260.53 L 707.08 263.77 L 707.08 263.77 Z" fill="url(#linearGradient-10)" fill-rule="evenodd" group-id="1,4" id="路径" node-id="104" stroke="none" target-height="17.539993" target-width="51.359985" target-x="681.4" target-y="246.23"></path><path d="M 811.49 303.80 L 811.49 303.76 L 810.42 301.50 L 809.03 299.55 L 807.31 297.89 L 805.32 296.52 L 803.18 295.46 L 800.85 294.69 L 798.44 294.23 L 796.06 294.10 L 793.69 294.28 L 796.50 292.89 L 799.72 291.97 L 801.96 291.67 L 804.13 291.69 L 806.24 292.00 L 808.24 292.66 L 809.98 293.70 L 811.49 295.14 L 811.49 295.19 L 813.01 293.76 L 814.75 292.72 L 816.75 292.06 L 818.87 291.75 L 821.04 291.73 L 823.29 292.02 L 826.50 292.94 L 829.30 294.32 L 826.92 294.15 L 824.54 294.30 L 822.13 294.76 L 819.80 295.53 L 817.66 296.60 L 815.68 297.97 L 813.95 299.62 L 812.56 301.55 L 811.49 303.80 Z" fill="url(#linearGradient-11)" fill-rule="evenodd" group-id="1,4" id="路径" node-id="105" stroke="none" target-height="12.129974" target-width="35.609985" target-x="793.69" target-y="291.67"></path><path d="M 167.48 558.39 L 165.16 574.34 L 163.66 587.80 L 162.84 599.06 L 162.60 608.37 L 162.83 616.00 L 163.45 622.16 L 164.37 627.08 L 165.52 630.96 L 168.10 629.04 L 171.04 627.15 L 167.05 634.41 L 171.92 648.73 L 177.08 662.29 L 182.52 675.10 L 188.24 687.22 L 194.21 698.66 L 200.45 709.46 L 206.93 719.64 L 213.67 729.23 L 220.65 738.25 L 227.88 746.73 L 235.36 754.69 L 243.08 762.14 L 251.07 769.10 L 258.21 773.90 L 267.32 779.96 L 272.30 782.94 L 277.36 785.60 L 280.82 787.14 L 284.13 788.31 L 287.28 789.15 L 290.48 789.59 L 293.38 789.51 L 296.04 788.93 L 297.88 788.14 L 299.58 786.97 L 301.15 785.37 L 302.60 783.29 L 303.68 781.10 L 304.62 778.32 L 305.38 774.84 L 305.91 770.53 L 306.12 764.95 L 305.84 757.86 L 304.93 749.00 L 303.28 738.56 L 301.08 728.17 L 298.32 717.81 L 295.00 707.48 L 291.11 697.15 L 286.61 686.82 L 281.51 676.49 L 275.78 666.12 L 269.39 655.73 L 262.33 645.30 L 254.56 634.82 L 246.05 624.28 L 236.78 613.69 L 226.56 611.14 L 232.61 606.56 L 228.96 600.32 L 224.98 594.41 L 220.68 588.79 L 216.05 583.48 L 211.08 578.44 L 209.32 579.59 L 206.98 580.70 L 203.91 581.74 L 206.55 573.10 L 167.48 558.39 Z" fill="url(#linearGradient-12)" fill-rule="evenodd" group-id="1,5" id="路径-78" node-id="107" stroke="none" target-height="231.20001" target-width="143.51999" target-x="162.6" target-y="558.39"></path><path d="M 117.55 709.91 L 111.80 711.42 L 107.05 712.18 L 103.17 712.32 L 99.99 711.96 L 97.39 711.19 L 95.27 710.04 L 93.55 708.54 L 92.16 706.64 L 91.11 704.27 L 90.42 701.33 L 90.16 697.70 L 90.41 693.22 L 91.11 685.83 L 91.37 680.41 L 91.30 676.99 L 91.01 674.23 L 90.54 672.03 L 89.77 669.92 L 88.76 668.09 L 87.49 666.50 L 85.10 664.40 L 81.80 662.27 L 73.07 657.73 L 69.76 655.77 L 67.35 653.80 L 65.66 651.84 L 64.39 649.59 L 63.71 647.47 L 63.55 645.41 L 63.84 643.36 L 64.55 641.49 L 65.67 639.76 L 67.13 638.29 L 68.89 637.10 L 71.00 636.19 L 73.24 635.69 L 75.72 635.61 L 78.49 636.00 L 83.58 637.42 L 89.50 639.57 L 96.38 642.54 L 104.33 646.49 L 113.47 651.56 L 118.64 654.47 L 122.59 656.14 L 125.55 656.89 L 127.77 656.95 L 129.44 656.52 L 130.72 655.64 L 131.68 654.29 L 132.34 652.32 L 132.61 649.49 L 132.41 645.34 L 131.87 641.38 L 130.50 634.29 L 130.05 631.24 L 130.05 629.12 L 130.37 627.94 L 131.01 627.19 L 132.02 626.77 L 133.21 626.73 L 135.09 627.10 L 137.94 628.12 L 140.62 629.56 L 143.40 631.63 L 146.30 634.44 L 148.93 637.51 L 151.54 641.01 L 154.11 644.98 L 157.59 651.17 L 160.69 657.68 L 163.34 664.29 L 165.35 670.46 L 166.41 674.61 L 167.08 678.18 L 167.41 681.26 L 167.84 684.77 L 168.59 687.39 L 169.60 689.30 L 170.82 690.66 L 172.27 691.56 L 174.01 692.06 L 176.13 692.11 L 178.75 691.62 L 182.00 690.45 L 188.73 663.48 L 190.57 659.47 L 192.16 657.09 L 193.53 655.85 L 194.75 655.37 L 195.93 655.48 L 197.19 656.20 L 198.63 657.80 L 200.30 660.68 L 202.22 665.39 L 204.42 672.56 L 206.89 682.93 L 209.64 697.34 L 213.01 705.82 L 215.84 711.66 L 218.21 715.46 L 220.18 717.76 L 221.82 718.97 L 223.23 719.43 L 224.53 719.31 L 225.82 718.61 L 227.18 717.14 L 228.64 714.57 L 231.48 711.79 L 234.19 709.84 L 236.83 708.59 L 239.44 707.96 L 242.07 707.89 L 244.79 708.39 L 247.66 709.54 L 250.73 711.42 L 254.06 714.20 L 257.67 718.06 L 261.62 723.19 L 265.92 729.85 L 270.61 738.29 L 275.72 748.79 L 281.26 761.66 L 287.27 777.22 L 290.34 786.36 L 292.40 794.16 L 293.61 800.77 L 294.11 806.35 L 294.00 811.05 L 293.39 814.99 L 292.35 818.30 L 290.93 821.07 L 289.12 823.40 L 286.92 825.32 L 284.27 826.88 L 281.09 828.07 L 277.29 828.84 L 272.74 829.14 L 267.32 828.88 L 260.88 827.95 L 253.27 826.21 L 244.32 823.52 L 233.85 819.71 L 221.68 814.61 L 207.60 808.04 L 191.41 799.78 L 189.42 795.15 L 187.14 791.08 L 184.56 787.51 L 181.69 784.40 L 178.52 781.72 L 175.02 779.44 L 171.17 777.55 L 166.93 776.06 L 161.65 774.48 L 156.53 772.76 L 151.62 770.75 L 147.24 768.40 L 144.56 766.54 L 142.25 764.44 L 140.27 762.09 L 138.70 759.47 L 137.56 756.45 L 136.86 752.94 L 136.71 749.36 L 137.13 745.11 L 138.24 740.07 L 139.27 735.34 L 139.64 731.21 L 139.42 727.59 L 138.69 724.38 L 137.48 721.52 L 135.77 718.95 L 133.53 716.64 L 130.70 714.56 L 127.17 712.73 L 122.84 711.16 L 117.55 709.91 Z" fill="url(#linearGradient-13)" fill-rule="evenodd" group-id="1,5" id="路径-79" node-id="108" stroke="none" target-height="202.41003" target-width="230.55998" target-x="63.55" target-y="626.73"></path><path d="M 271.98 592.66 L 271.98 857.39 L 272.33 860.76 L 273.28 863.86 L 274.84 866.75 L 276.90 869.33 L 279.39 871.54 L 282.36 873.40 L 285.58 874.77 L 289.09 875.62 L 292.93 875.94 L 527.34 885.02 L 543.93 875.94 L 581.82 741.71 L 529.28 640.15 L 604.58 572.52 L 292.78 574.10 L 288.96 574.45 L 285.48 575.31 L 282.27 576.69 L 279.33 578.56 L 276.86 580.77 L 274.82 583.34 L 273.27 586.22 L 272.33 589.31 L 271.98 592.66 Z" fill="url(#linearGradient-14)" fill-rule="evenodd" group-id="1,6" id="路径" node-id="110" stroke="none" target-height="312.5" target-width="332.6" target-x="271.98" target-y="572.52"></path><path d="M 271.98 605.45 L 271.98 866.48 L 272.33 869.85 L 273.28 872.95 L 274.83 875.84 L 276.88 878.42 L 279.36 880.63 L 282.32 882.49 L 285.53 883.85 L 289.02 884.70 L 292.85 885.02 L 526.39 885.02 L 566.20 743.51 L 509.74 638.31 L 566.20 585.32 L 292.70 586.89 L 288.90 587.24 L 285.43 588.11 L 282.23 589.48 L 279.30 591.35 L 276.84 593.56 L 274.80 596.13 L 273.27 599.01 L 272.33 602.10 L 271.98 605.45 Z" fill="url(#linearGradient-15)" fill-rule="evenodd" group-id="1,6" id="路径备份" node-id="111" stroke="none" target-height="299.7" target-width="294.22" target-x="271.98" target-y="585.32"></path><path d="M 550.75 803.16 L 564.37 753.44 L 496.90 791.98 L 476.79 803.17 L 474.00 804.52 L 456.98 791.01 L 436.14 773.69 L 410.91 751.97 L 380.70 725.20 L 378.28 723.41 L 375.62 722.05 L 372.69 721.12 L 369.64 720.63 L 366.59 720.58 L 363.51 720.97 L 360.53 721.80 L 357.81 723.07 L 355.30 724.78 L 271.98 827.16 L 271.98 864.86 L 272.24 868.24 L 273.04 871.47 L 274.39 874.59 L 275.75 876.73 L 277.43 878.68 L 279.46 880.45 L 281.89 882.04 L 284.45 883.25 L 287.42 884.17 L 290.87 884.77 L 294.87 885.02 L 527.98 885.02 L 550.75 803.16 Z" fill="url(#linearGradient-16)" fill-rule="evenodd" group-id="1,6" id="路径" node-id="112" stroke="none" target-height="164.44" target-width="292.38998" target-x="271.98" target-y="720.58"></path><path d="M 721.12 599.94 L 842.85 627.61 L 846.39 628.72 L 849.47 630.24 L 852.16 632.17 L 854.49 634.51 L 856.30 637.08 L 857.62 639.90 L 858.40 642.91 L 858.58 646.01 L 858.14 649.26 L 776.37 917.92 L 775.46 920.63 L 774.18 923.09 L 772.51 925.31 L 770.52 927.28 L 768.28 928.95 L 765.74 930.35 L 763.05 931.41 L 760.22 932.13 L 757.22 932.49 L 754.20 932.48 L 751.16 932.05 L 748.08 931.21 L 571.68 888.72 L 660.25 743.17 L 637.17 641.17 L 721.12 599.94 Z" fill="url(#linearGradient-17)" fill-rule="evenodd" group-id="1,6" id="路径备份-2" node-id="113" stroke="none" target-height="332.55" target-width="286.90002" target-x="571.68" target-y="599.94"></path><path d="M 703.06 607.25 L 824.60 634.89 L 828.13 635.99 L 831.21 637.51 L 833.89 639.44 L 836.22 641.78 L 838.03 644.34 L 839.35 647.17 L 840.13 650.17 L 840.30 653.27 L 839.87 656.52 L 761.42 914.28 L 760.52 916.99 L 759.24 919.44 L 757.58 921.67 L 755.59 923.63 L 753.35 925.30 L 750.82 926.70 L 748.13 927.76 L 745.30 928.47 L 742.31 928.84 L 739.29 928.82 L 736.26 928.40 L 733.18 927.55 L 557.06 885.11 L 642.29 750.31 L 619.25 648.43 L 703.06 607.25 Z" fill="url(#linearGradient-18)" fill-rule="evenodd" group-id="1,6" id="路径" node-id="114" stroke="none" target-height="321.59003" target-width="283.24" target-x="557.06" target-y="607.25"></path><path d="M 769.05 892.24 L 682.51 745.57 L 680.81 743.54 L 678.83 741.88 L 676.56 740.54 L 674.10 739.59 L 671.53 739.01 L 668.82 738.82 L 666.13 739.04 L 663.50 739.68 L 660.90 740.76 L 642.53 749.11 L 557.06 884.44 L 665.63 911.00 L 712.74 922.24 L 727.61 925.55 L 733.67 926.54 L 739.02 927.00 L 743.75 926.99 L 747.34 926.62 L 750.44 925.95 L 753.12 925.00 L 755.44 923.79 L 757.51 922.21 L 759.19 920.31 L 760.48 918.04 L 761.41 915.35 L 769.05 892.24 Z" fill="url(#linearGradient-19)" fill-rule="evenodd" group-id="1,6" id="路径" node-id="115" stroke="none" target-height="188.18" target-width="211.98999" target-x="557.06" target-y="738.82"></path><path d="M 778.19 701.36 L 777.98 704.86 L 777.40 708.20 L 776.47 711.42 L 775.17 714.52 L 772.95 718.42 L 770.22 721.99 L 766.95 725.27 L 763.28 728.11 L 759.23 730.52 L 754.75 732.51 L 750.06 733.95 L 745.10 734.84 L 739.81 735.17 L 734.53 734.84 L 729.56 733.95 L 724.87 732.51 L 720.39 730.52 L 716.34 728.11 L 712.67 725.27 L 709.40 721.99 L 706.67 718.42 L 704.45 714.52 L 703.15 711.42 L 702.22 708.20 L 701.65 704.86 L 701.43 701.36 L 701.65 697.86 L 702.22 694.52 L 703.15 691.30 L 704.45 688.20 L 706.67 684.30 L 709.40 680.73 L 712.67 677.45 L 716.34 674.61 L 720.39 672.20 L 724.87 670.21 L 729.56 668.77 L 734.53 667.88 L 739.81 667.55 L 745.10 667.88 L 750.06 668.77 L 754.75 670.21 L 759.23 672.20 L 763.28 674.61 L 766.95 677.45 L 770.22 680.73 L 772.95 684.30 L 775.17 688.20 L 776.47 691.30 L 777.40 694.52 L 777.98 697.86 L 778.19 701.36 Z" fill="#ffffff" fill-rule="nonzero" group-id="1,6" id="椭圆形" node-id="116" stroke="none" target-height="67.619995" target-width="76.76001" target-x="701.43" target-y="667.55"></path><path d="M 202.99 393.38 L 222.72 455.39 L 250.75 443.29 L 276.11 489.31 L 259.24 423.95 L 230.75 436.25 Z" fill="url(#linearGradient-20)" fill-rule="evenodd" group-id="1,6,8" id="路径-2" node-id="117" stroke="none" target-height="95.92999" target-width="73.11998" target-x="202.99" target-y="393.38"></path><path d="M 762.32 445.29 L 672.94 495.84 L 713.41 530.25 L 643.40 577.95 L 695.84 556.01 L 726.06 542.85 L 741.42 535.69 L 747.80 532.27 L 749.61 530.92 L 749.74 530.47 L 747.30 528.18 L 736.56 519.31 L 707.72 496.43 L 762.32 445.29 Z" fill="url(#linearGradient-21)" fill-rule="evenodd" group-id="1,6,9" id="路径-3" node-id="118" stroke="none" target-height="132.66" target-width="118.91998" target-x="643.4" target-y="445.29"></path><path d="M 440.95 706.43 L 441.06 715.31 L 444.95 716.23 L 449.06 717.70 L 453.42 719.79 L 458.05 722.57 L 459.72 724.12 L 460.67 725.22 L 461.32 726.31 L 461.60 727.23 L 461.61 729.27 L 461.27 729.62 L 459.67 729.82 L 455.14 729.49 L 445.28 727.97 L 426.90 724.39 L 430.09 701.66 L 440.95 706.43 Z" fill="url(#linearGradient-22)" fill-rule="nonzero" group-id="1,7,10" id="路径-52备份" node-id="120" stroke="none" target-height="28.160034" target-width="34.70999" target-x="426.9" target-y="701.66"></path><path d="M 477.50 706.43 L 477.60 715.31 L 481.50 716.23 L 485.61 717.70 L 489.97 719.79 L 494.60 722.57 L 496.27 724.12 L 497.22 725.22 L 497.87 726.31 L 498.15 727.23 L 498.16 729.27 L 497.82 729.62 L 496.22 729.82 L 491.69 729.49 L 481.83 727.97 L 463.45 724.39 L 466.64 701.66 L 477.50 706.43 Z" fill="url(#linearGradient-22)" fill-rule="nonzero" group-id="1,7,11" id="路径-52备份-2" node-id="121" stroke="none" target-height="28.160034" target-width="34.70999" target-x="463.45" target-y="701.66"></path><path d="M 405.94 544.59 L 404.53 551.68 L 403.77 557.91 L 403.56 563.37 L 403.84 568.16 L 404.55 572.35 L 405.64 576.02 L 407.09 579.24 L 408.87 582.06 L 411.01 584.53 L 424.66 585.82 L 452.95 587.83 L 453.95 628.38 L 454.96 654.88 L 455.94 671.01 L 457.91 693.54 L 459.91 711.41 L 480.75 710.30 L 485.79 592.15 L 485.47 583.58 L 484.64 576.31 L 483.39 570.16 L 481.78 564.99 L 479.86 560.68 L 477.66 557.11 L 475.21 554.18 L 471.50 550.72 L 467.79 547.85 L 464.04 545.53 L 460.25 543.70 L 456.40 542.35 L 452.47 541.46 L 405.94 544.59 Z" fill="url(#linearGradient-23)" fill-rule="nonzero" group-id="1,7" id="路径-62备份" node-id="122" stroke="none" target-height="169.94995" target-width="82.23001" target-x="403.56" target-y="541.46"></path><path d="M 371.22 544.59 L 369.81 551.68 L 369.05 557.91 L 368.84 563.37 L 369.12 568.16 L 369.83 572.35 L 370.92 576.02 L 372.36 579.24 L 374.15 582.06 L 376.29 584.53 L 389.94 585.82 L 418.23 587.83 L 419.22 628.38 L 420.24 654.88 L 421.21 671.01 L 423.19 693.54 L 425.19 711.41 L 446.03 710.30 L 451.07 592.15 L 450.74 583.58 L 449.92 576.31 L 448.66 570.16 L 447.05 564.99 L 445.14 560.68 L 442.94 557.11 L 440.49 554.18 L 436.78 550.72 L 433.06 547.85 L 429.32 545.53 L 425.53 543.70 L 421.68 542.35 L 417.75 541.46 L 371.22 544.59 Z" fill="url(#linearGradient-23)" fill-rule="nonzero" group-id="1,7" id="路径-62" node-id="123" stroke="none" target-height="169.94995" target-width="82.23001" target-x="368.84" target-y="541.46"></path><path d="M 345.76 488.46 L 334.91 507.71 L 334.43 508.79 L 334.17 509.85 L 334.16 511.11 L 334.59 512.34 L 335.20 513.27 L 336.03 514.13 L 372.27 532.32 L 372.49 516.39 L 354.73 508.09 L 364.83 492.61 L 345.76 488.46 Z" fill="#fee0bc" fill-rule="evenodd" group-id="1,7" id="胳膊-path" node-id="124" stroke="none" target-height="43.860016" target-width="38.329987" target-x="334.16" target-y="488.46"></path><path d="M 479.64 488.46 L 490.48 507.34 L 490.96 508.40 L 491.23 509.44 L 491.23 510.67 L 490.80 511.88 L 490.19 512.79 L 489.36 513.63 L 453.22 532.32 L 452.90 515.85 L 470.67 507.71 L 460.57 492.53 L 479.64 488.46 Z" fill="#fee0bc" fill-rule="evenodd" group-id="1,7" id="胳膊-path" node-id="125" stroke="none" target-height="43.860016" target-width="38.330017" target-x="452.9" target-y="488.46"></path><path d="M 401.98 430.72 L 421.34 430.72 L 421.34 450.08 L 401.98 450.08 Z" fill="url(#linearGradient-24)" fill-rule="evenodd" group-id="1,7,12" id="矩形" node-id="127" stroke="none" target-height="19.359985" target-width="19.359985" target-x="401.98" target-y="430.72"></path><path d="M 438.73 408.59 L 438.46 412.16 L 437.73 415.52 L 436.54 418.72 L 434.92 421.73 L 432.94 424.48 L 430.58 426.99 L 427.92 429.18 L 424.98 431.04 L 421.74 432.56 L 418.34 433.67 L 414.74 434.36 L 410.91 434.61 L 407.09 434.36 L 403.49 433.67 L 400.09 432.56 L 396.85 431.04 L 393.91 429.18 L 391.25 426.99 L 388.88 424.48 L 386.90 421.73 L 385.28 418.72 L 384.09 415.52 L 383.36 412.16 L 383.10 408.59 L 383.36 405.02 L 384.09 401.66 L 385.28 398.46 L 386.90 395.45 L 388.88 392.70 L 391.25 390.19 L 393.91 387.99 L 396.85 386.14 L 400.09 384.61 L 403.49 383.50 L 407.09 382.82 L 410.91 382.57 L 414.74 382.82 L 418.34 383.50 L 421.74 384.61 L 424.98 386.14 L 427.92 387.99 L 430.58 390.19 L 432.94 392.70 L 434.92 395.45 L 436.54 398.46 L 437.73 401.66 L 438.46 405.02 L 438.73 408.59 Z" fill="url(#linearGradient-25)" fill-rule="evenodd" group-id="1,7,12" id="椭圆形" node-id="128" stroke="none" target-height="52.039978" target-width="55.630005" target-x="383.1" target-y="382.57"></path><path d="M 444.11 409.84 L 443.92 411.63 L 443.44 413.13 L 442.69 414.41 L 441.68 415.45 L 440.55 416.07 L 439.27 416.30 L 437.98 416.07 L 436.86 415.45 L 435.84 414.41 L 435.09 413.13 L 434.61 411.63 L 434.42 409.84 L 434.61 408.06 L 435.09 406.55 L 435.84 405.28 L 436.86 404.23 L 437.98 403.62 L 439.27 403.38 L 440.55 403.62 L 441.68 404.23 L 442.69 405.28 L 443.44 406.55 L 443.92 408.06 L 444.11 409.84 Z" fill="url(#linearGradient-26)" fill-rule="evenodd" group-id="1,7,12" id="椭圆形" node-id="129" stroke="none" target-height="12.919983" target-width="9.689972" target-x="434.42" target-y="403.38"></path><path d="M 386.64 412.76 L 386.70 414.55 L 386.43 416.11 L 385.87 417.48 L 385.01 418.65 L 383.98 419.42 L 382.74 419.83 L 381.44 419.77 L 380.24 419.32 L 379.09 418.43 L 378.17 417.27 L 377.48 415.85 L 377.05 414.11 L 376.99 412.31 L 377.25 410.76 L 377.81 409.39 L 378.68 408.21 L 379.71 407.45 L 380.94 407.04 L 382.25 407.09 L 383.45 407.54 L 384.60 408.43 L 385.52 409.59 L 386.20 411.02 L 386.64 412.76 Z" fill="url(#linearGradient-27)" fill-rule="evenodd" group-id="1,7,12,13" id="椭圆形备份" node-id="130" stroke="none" target-height="12.789978" target-width="9.710022" target-x="376.99" target-y="407.04"></path><path d="M 385.58 414.24 L 383.54 412.94 L 381.69 411.15 L 380.02 408.82 L 378.53 405.84 L 377.24 402.09 L 376.79 398.37 L 376.70 394.80 L 376.94 391.35 L 377.84 386.33 L 379.19 381.90 L 380.96 377.84 L 382.83 374.69 L 384.28 372.81 L 385.56 371.51 L 386.71 370.68 L 390.17 368.76 L 392.65 367.66 L 394.23 367.28 L 395.62 367.34 L 396.88 367.81 L 397.92 366.65 L 399.97 365.20 L 402.48 363.98 L 405.95 362.90 L 408.42 362.44 L 411.28 362.20 L 414.57 362.21 L 417.83 362.53 L 421.48 363.25 L 425.56 364.42 L 429.46 366.05 L 432.78 367.99 L 435.60 370.22 L 438.13 372.80 L 440.22 375.48 L 441.90 378.28 L 443.30 381.26 L 444.32 384.11 L 445.02 386.87 L 445.56 390.96 L 445.49 394.22 L 444.77 398.16 L 443.44 402.32 L 441.40 406.74 L 438.58 411.46 L 438.58 403.28 L 437.40 407.49 L 436.19 410.05 L 435.01 411.46 L 435.40 408.96 L 435.59 406.48 L 435.50 404.13 L 435.14 402.57 L 434.81 402.11 L 434.59 402.42 L 434.12 404.56 L 433.36 407.50 L 430.74 404.34 L 427.85 401.60 L 424.66 399.25 L 421.15 397.26 L 417.29 395.65 L 416.56 397.30 L 408.06 389.10 L 404.79 386.33 L 403.14 385.39 L 401.97 385.13 L 401.12 385.32 L 400.45 385.91 L 399.93 387.07 L 398.74 386.35 L 397.98 386.11 L 397.21 386.16 L 396.54 386.61 L 395.85 387.83 L 393.95 392.22 L 393.00 394.89 L 392.04 398.37 L 391.30 402.21 L 390.70 407.22 L 390.04 406.35 L 389.56 406.07 L 389.18 406.14 L 388.67 406.71 L 388.25 408.12 L 388.11 409.82 L 388.22 412.03 L 386.17 411.39 L 385.58 414.24 Z" fill="#483029" fill-rule="evenodd" group-id="1,7,12" id="路径-67" node-id="131" stroke="none" target-height="52.039978" target-width="68.859985" target-x="376.7" target-y="362.2"></path><path d="M 402.38 441.49 L 411.71 451.54 L 421.80 440.95 L 441.17 445.22 L 442.66 445.57 L 444.14 446.04 L 446.07 446.84 L 447.95 447.90 L 449.73 449.33 L 455.64 455.47 L 461.98 462.39 L 467.74 468.85 L 471.93 473.63 L 473.55 475.50 L 483.97 487.09 L 481.23 490.10 L 478.26 492.84 L 475.03 495.31 L 472.30 497.04 L 469.52 498.56 L 464.77 500.82 L 462.75 501.67 L 454.57 493.82 L 454.57 548.77 L 371.20 548.77 L 371.20 493.07 L 366.36 499.05 L 364.27 498.58 L 359.20 497.10 L 356.16 495.99 L 352.96 494.57 L 348.91 492.26 L 345.07 489.64 L 341.42 486.72 L 365.99 456.44 L 368.34 454.13 L 370.82 451.95 L 373.19 450.19 L 375.66 448.59 L 378.79 447.36 L 381.99 446.35 L 388.38 444.70 L 395.03 443.13 L 400.27 441.96 L 402.38 441.49 Z" fill="url(#linearGradient-28)" fill-rule="evenodd" group-id="1,7" id="衣服" node-id="132" stroke="none" target-height="107.82001" target-width="142.54999" target-x="341.42" target-y="440.95"></path><path d="M 456.55 550.59 L 370.66 550.59 L 370.66 498.69 L 370.85 497.40 L 371.32 496.30 L 372.07 495.33 L 373.05 494.59 L 374.17 494.13 L 375.48 493.94 L 451.74 493.94 L 453.05 494.13 L 454.17 494.59 L 455.14 495.33 L 455.90 496.30 L 456.37 497.40 L 456.55 498.69 L 456.55 550.59 Z" fill="#483029" fill-rule="evenodd" group-id="1,7" id="Fill-1633" node-id="133" stroke="none" target-height="56.650024" target-width="85.889984" target-x="370.66" target-y="493.94"></path><path d="M 460.21 548.77 L 367.01 548.77 L 367.01 549.89 L 367.34 550.39 L 368.14 550.59 L 459.07 550.59 L 459.88 550.39 L 460.21 549.89 L 460.21 548.77 Z" fill="#483029" fill-rule="evenodd" group-id="1,7" id="Fill-1634" node-id="134" stroke="none" target-height="1.8200073" target-width="93.19998" target-x="367.01" target-y="548.77"></path></g></svg>